<svg width="150" height="150" viewBox="0 0 150 150" fill="none" xmlns="http://www.w3.org/2000/svg">
<rect width="150" height="150" rx="30" fill="#FFFCFA"/>
<mask id="path-2-inside-1_192_12" fill="white">
<path d="M5.1 64.64H31.61V74.76C34.03 67.28 39.3467 63.54 47.56 63.54C55.8467 63.54 60.87 67.5 62.63 75.42C65.1967 67.5 70.5867 63.54 78.8 63.54C89.58 63.54 94.97 69.6633 94.97 81.91V115.02H101.13V117H70.66V115.02H74.51V79.27C74.51 73.6967 74.0333 70.4333 73.08 69.48C72.64 69.04 72.0533 68.82 71.32 68.82C69.1933 68.82 67.3233 70.25 65.71 73.11C64.0967 75.97 63.29 79.6 63.29 84V115.02H67.25V117H38.98V115.02H42.83V79.27C42.83 73.6967 42.3533 70.4333 41.4 69.48C40.96 69.04 40.3733 68.82 39.64 68.82C37.5867 68.82 35.7167 70.3967 34.03 73.55C32.4167 76.63 31.61 80.3333 31.61 84.66V115.02H35.57V117H5.1V115.02H11.15V66.62H5.1V64.64Z"/>
</mask>
<path d="M5.1 64.64H31.61V74.76C34.03 67.28 39.3467 63.54 47.56 63.54C55.8467 63.54 60.87 67.5 62.63 75.42C65.1967 67.5 70.5867 63.54 78.8 63.54C89.58 63.54 94.97 69.6633 94.97 81.91V115.02H101.13V117H70.66V115.02H74.51V79.27C74.51 73.6967 74.0333 70.4333 73.08 69.48C72.64 69.04 72.0533 68.82 71.32 68.82C69.1933 68.82 67.3233 70.25 65.71 73.11C64.0967 75.97 63.29 79.6 63.29 84V115.02H67.25V117H38.98V115.02H42.83V79.27C42.83 73.6967 42.3533 70.4333 41.4 69.48C40.96 69.04 40.3733 68.82 39.64 68.82C37.5867 68.82 35.7167 70.3967 34.03 73.55C32.4167 76.63 31.61 80.3333 31.61 84.66V115.02H35.57V117H5.1V115.02H11.15V66.62H5.1V64.64Z" fill="#E2D6C7"/>
<path d="M5.1 64.64V63.64H4.1V64.64H5.1ZM31.61 64.64H32.61V63.64H31.61V64.64ZM31.61 74.76H30.61L32.5614 75.0678L31.61 74.76ZM62.63 75.42L61.6538 75.6369L62.4499 79.2194L63.5813 75.7283L62.63 75.42ZM94.97 115.02H93.97V116.02H94.97V115.02ZM101.13 115.02H102.13V114.02H101.13V115.02ZM101.13 117V118H102.13V117H101.13ZM70.66 117H69.66V118H70.66V117ZM70.66 115.02V114.02H69.66V115.02H70.66ZM74.51 115.02V116.02H75.51V115.02H74.51ZM73.08 69.48L72.3729 70.1871L72.3729 70.1871L73.08 69.48ZM65.71 73.11L66.581 73.6013L66.581 73.6013L65.71 73.11ZM63.29 115.02H62.29V116.02H63.29V115.02ZM67.25 115.02H68.25V114.02H67.25V115.02ZM67.25 117V118H68.25V117H67.25ZM38.98 117H37.98V118H38.98V117ZM38.98 115.02V114.02H37.98V115.02H38.98ZM42.83 115.02V116.02H43.83V115.02H42.83ZM41.4 69.48L40.6929 70.1871L40.6929 70.1871L41.4 69.48ZM34.03 73.55L33.1482 73.0783L33.1442 73.086L34.03 73.55ZM31.61 115.02H30.61V116.02H31.61V115.02ZM35.57 115.02H36.57V114.02H35.57V115.02ZM35.57 117V118H36.57V117H35.57ZM5.1 117H4.1V118H5.1V117ZM5.1 115.02V114.02H4.1V115.02H5.1ZM11.15 115.02V116.02H12.15V115.02H11.15ZM11.15 66.62H12.15V65.62H11.15V66.62ZM5.1 66.62H4.1V67.62H5.1V66.62ZM5.1 64.64V65.64H31.61V64.64V63.64H5.1V64.64ZM31.61 64.64H30.61V74.76H31.61H32.61V64.64H31.61ZM31.61 74.76L32.5614 75.0678C33.719 71.4898 35.5415 68.8838 37.9879 67.1629C40.4381 65.4393 43.6048 64.54 47.56 64.54V63.54V62.54C43.3019 62.54 39.7036 63.5107 36.8371 65.5271C33.9668 67.5462 31.921 70.5502 30.6586 74.4522L31.61 74.76ZM47.56 63.54V64.54C51.5457 64.54 54.6344 65.4908 56.9234 67.2953C59.2101 69.0979 60.8101 71.8402 61.6538 75.6369L62.63 75.42L63.6062 75.2031C62.6899 71.0798 60.8983 67.8821 58.1616 65.7247C55.4273 63.5692 51.861 62.54 47.56 62.54V63.54ZM62.63 75.42L63.5813 75.7283C64.816 71.9183 66.701 69.1442 69.1896 67.3159C71.6769 65.4884 74.8569 64.54 78.8 64.54V63.54V62.54C74.5298 62.54 70.9081 63.5716 68.0054 65.7041C65.104 67.8358 63.0107 71.0017 61.6787 75.1117L62.63 75.42ZM78.8 63.54V64.54C84.0004 64.54 87.7279 66.0111 90.1769 68.7932C92.6472 71.5997 93.97 75.9117 93.97 81.91H94.97H95.97C95.97 75.6617 94.5978 70.7886 91.6781 67.4718C88.7371 64.1306 84.3796 62.54 78.8 62.54V63.54ZM94.97 81.91H93.97V115.02H94.97H95.97V81.91H94.97ZM94.97 115.02V116.02H101.13V115.02V114.02H94.97V115.02ZM101.13 115.02H100.13V117H101.13H102.13V115.02H101.13ZM101.13 117V116H70.66V117V118H101.13V117ZM70.66 117H71.66V115.02H70.66H69.66V117H70.66ZM70.66 115.02V116.02H74.51V115.02V114.02H70.66V115.02ZM74.51 115.02H75.51V79.27H74.51H73.51V115.02H74.51ZM74.51 79.27H75.51C75.51 76.4631 75.3905 74.199 75.142 72.498C75.0178 71.6478 74.8578 70.9118 74.6527 70.307C74.4529 69.7178 74.1826 69.1684 73.7871 68.7729L73.08 69.48L72.3729 70.1871C72.4541 70.2683 72.6009 70.4843 72.7586 70.9493C72.911 71.3986 73.0489 72.0055 73.163 72.787C73.3912 74.3494 73.51 76.5036 73.51 79.27H74.51ZM73.08 69.48L73.7871 68.7729C73.1264 68.1122 72.2676 67.82 71.32 67.82V68.82V69.82C71.8391 69.82 72.1536 69.9678 72.3729 70.1871L73.08 69.48ZM71.32 68.82V67.82C68.6615 67.82 66.5256 69.6288 64.839 72.6187L65.71 73.11L66.581 73.6013C68.1211 70.8712 69.7252 69.82 71.32 69.82V68.82ZM65.71 73.11L64.839 72.6187C63.1172 75.6711 62.29 79.4842 62.29 84H63.29H64.29C64.29 79.7158 65.0762 76.2689 66.581 73.6013L65.71 73.11ZM63.29 84H62.29V115.02H63.29H64.29V84H63.29ZM63.29 115.02V116.02H67.25V115.02V114.02H63.29V115.02ZM67.25 115.02H66.25V117H67.25H68.25V115.02H67.25ZM67.25 117V116H38.98V117V118H67.25V117ZM38.98 117H39.98V115.02H38.98H37.98V117H38.98ZM38.98 115.02V116.02H42.83V115.02V114.02H38.98V115.02ZM42.83 115.02H43.83V79.27H42.83H41.83V115.02H42.83ZM42.83 79.27H43.83C43.83 76.4631 43.7105 74.199 43.462 72.498C43.3378 71.6478 43.1778 70.9118 42.9726 70.307C42.7729 69.7178 42.5026 69.1684 42.1071 68.7729L41.4 69.48L40.6929 70.1871C40.7741 70.2683 40.9209 70.4843 41.0786 70.9493C41.231 71.3986 41.3688 72.0055 41.483 72.787C41.7112 74.3494 41.83 76.5036 41.83 79.27H42.83ZM41.4 69.48L42.1071 68.7729C41.4464 68.1122 40.5876 67.82 39.64 67.82V68.82V69.82C40.1591 69.82 40.4736 69.9678 40.6929 70.1871L41.4 69.48ZM39.64 68.82V67.82C37.0025 67.82 34.8758 69.8485 33.1482 73.0783L34.03 73.55L34.9118 74.0217C36.5575 70.9448 38.1708 69.82 39.64 69.82V68.82ZM34.03 73.55L33.1442 73.086C31.4397 76.34 30.61 80.2105 30.61 84.66H31.61H32.61C32.61 80.4562 33.3936 76.92 34.9158 74.014L34.03 73.55ZM31.61 84.66H30.61V115.02H31.61H32.61V84.66H31.61ZM31.61 115.02V116.02H35.57V115.02V114.02H31.61V115.02ZM35.57 115.02H34.57V117H35.57H36.57V115.02H35.57ZM35.57 117V116H5.1V117V118H35.57V117ZM5.1 117H6.1V115.02H5.1H4.1V117H5.1ZM5.1 115.02V116.02H11.15V115.02V114.02H5.1V115.02ZM11.15 115.02H12.15V66.62H11.15H10.15V115.02H11.15ZM11.15 66.62V65.62H5.1V66.62V67.62H11.15V66.62ZM5.1 66.62H6.1V64.64H5.1H4.1V66.62H5.1Z" fill="#2D2018" mask="url(#path-2-inside-1_192_12)"/>
<mask id="path-4-inside-2_192_12" fill="white">
<path d="M108.096 109.336C106.912 107.16 106 104.792 105.36 102.232C104.72 99.672 104.4 96.792 104.4 93.592C104.4 90.36 104.96 87.08 106.08 83.752C107.2 80.424 108.96 77.608 111.36 75.304C113.76 72.968 116.576 71.752 119.808 71.656V72.616C117.984 72.68 116.688 73.32 115.92 74.536C115.056 75.848 114.544 77.336 114.384 79C114.16 81.272 114.048 84.136 114.048 87.592V101.368C114.048 107.448 114.544 111.336 115.536 113.032C116.464 114.664 117.888 115.512 119.808 115.576V116.584C117.28 116.552 114.992 115.88 112.944 114.568C110.928 113.256 109.312 111.512 108.096 109.336ZM138.157 78.952C139.373 81.128 140.301 83.496 140.941 86.056C141.581 88.616 141.901 91.512 141.901 94.744C141.901 97.944 141.341 101.208 140.221 104.536C139.101 107.864 137.341 110.68 134.941 112.984C132.541 115.32 129.725 116.536 126.493 116.632V115.672C128.317 115.608 129.613 114.984 130.381 113.8C131.245 112.456 131.757 110.952 131.917 109.288C132.141 107.016 132.253 104.152 132.253 100.696V86.92C132.253 80.84 131.757 76.936 130.765 75.208C129.837 73.608 128.413 72.776 126.493 72.712V71.704C129.021 71.736 131.293 72.408 133.309 73.72C135.357 75.032 136.973 76.776 138.157 78.952Z"/>
</mask>
<path d="M108.096 109.336C106.912 107.16 106 104.792 105.36 102.232C104.72 99.672 104.4 96.792 104.4 93.592C104.4 90.36 104.96 87.08 106.08 83.752C107.2 80.424 108.96 77.608 111.36 75.304C113.76 72.968 116.576 71.752 119.808 71.656V72.616C117.984 72.68 116.688 73.32 115.92 74.536C115.056 75.848 114.544 77.336 114.384 79C114.16 81.272 114.048 84.136 114.048 87.592V101.368C114.048 107.448 114.544 111.336 115.536 113.032C116.464 114.664 117.888 115.512 119.808 115.576V116.584C117.28 116.552 114.992 115.88 112.944 114.568C110.928 113.256 109.312 111.512 108.096 109.336ZM138.157 78.952C139.373 81.128 140.301 83.496 140.941 86.056C141.581 88.616 141.901 91.512 141.901 94.744C141.901 97.944 141.341 101.208 140.221 104.536C139.101 107.864 137.341 110.68 134.941 112.984C132.541 115.32 129.725 116.536 126.493 116.632V115.672C128.317 115.608 129.613 114.984 130.381 113.8C131.245 112.456 131.757 110.952 131.917 109.288C132.141 107.016 132.253 104.152 132.253 100.696V86.92C132.253 80.84 131.757 76.936 130.765 75.208C129.837 73.608 128.413 72.776 126.493 72.712V71.704C129.021 71.736 131.293 72.408 133.309 73.72C135.357 75.032 136.973 76.776 138.157 78.952Z" fill="#E2D6C7"/>
<path d="M108.096 109.336L107.218 109.814L107.223 109.824L108.096 109.336ZM105.36 102.232L104.39 102.475L104.39 102.475L105.36 102.232ZM106.08 83.752L107.028 84.071L107.028 84.071L106.08 83.752ZM111.36 75.304L112.053 76.0254L112.057 76.0206L111.36 75.304ZM119.808 71.656H120.808V70.6259L119.778 70.6564L119.808 71.656ZM119.808 72.616L119.843 73.6154L120.808 73.5815V72.616H119.808ZM115.92 74.536L116.755 75.086L116.76 75.078L116.765 75.07L115.92 74.536ZM114.384 79L115.379 79.0981L115.379 79.0957L114.384 79ZM115.536 113.032L116.405 112.538L116.399 112.527L115.536 113.032ZM119.808 115.576H120.808V114.609L119.841 114.577L119.808 115.576ZM119.808 116.584L119.795 117.584L120.808 117.597V116.584H119.808ZM112.944 114.568L112.399 115.406L112.405 115.41L112.944 114.568ZM108.096 109.336L108.974 108.858C107.833 106.761 106.951 104.473 106.33 101.989L105.36 102.232L104.39 102.475C105.049 105.111 105.991 107.559 107.218 109.814L108.096 109.336ZM105.36 102.232L106.33 101.989C105.714 99.5235 105.4 96.7269 105.4 93.592H104.4H103.4C103.4 96.8571 103.726 99.8205 104.39 102.475L105.36 102.232ZM104.4 93.592H105.4C105.4 90.4774 105.939 87.305 107.028 84.071L106.08 83.752L105.132 83.433C103.981 86.855 103.4 90.2426 103.4 93.592H104.4ZM106.08 83.752L107.028 84.071C108.099 80.887 109.775 78.2116 112.053 76.0254L111.36 75.304L110.667 74.5826C108.145 77.0044 106.301 79.961 105.132 83.433L106.08 83.752ZM111.36 75.304L112.057 76.0206C114.285 73.8523 116.866 72.7438 119.838 72.6556L119.808 71.656L119.778 70.6564C116.286 70.7602 113.235 72.0837 110.663 74.5874L111.36 75.304ZM119.808 71.656H118.808V72.616H119.808H120.808V71.656H119.808ZM119.808 72.616L119.773 71.6166C117.718 71.6887 116.066 72.4314 115.075 74.002L115.92 74.536L116.765 75.07C117.31 74.2086 118.25 73.6713 119.843 73.6154L119.808 72.616ZM115.92 74.536L115.085 73.986C114.125 75.4428 113.563 77.0888 113.389 78.9043L114.384 79L115.379 79.0957C115.525 77.5832 115.987 76.2532 116.755 75.086L115.92 74.536ZM114.384 79L113.389 78.9019C113.16 81.2185 113.048 84.118 113.048 87.592H114.048H115.048C115.048 84.154 115.16 81.3255 115.379 79.0981L114.384 79ZM114.048 87.592H113.048V101.368H114.048H115.048V87.592H114.048ZM114.048 101.368H113.048C113.048 104.43 113.173 106.968 113.428 108.971C113.679 110.942 114.07 112.506 114.673 113.537L115.536 113.032L116.399 112.527C116.01 111.862 115.657 110.634 115.412 108.717C115.171 106.832 115.048 104.386 115.048 101.368H114.048ZM115.536 113.032L114.667 113.526C115.771 115.469 117.517 116.5 119.775 116.575L119.808 115.576L119.841 114.577C118.259 114.524 117.157 113.859 116.405 112.538L115.536 113.032ZM119.808 115.576H118.808V116.584H119.808H120.808V115.576H119.808ZM119.808 116.584L119.821 115.584C117.472 115.554 115.368 114.933 113.483 113.726L112.944 114.568L112.405 115.41C114.616 116.827 117.088 117.55 119.795 117.584L119.808 116.584ZM112.944 114.568L113.489 113.73C111.614 112.51 110.109 110.888 108.969 108.848L108.096 109.336L107.223 109.824C108.515 112.136 110.242 114.002 112.399 115.406L112.944 114.568ZM138.157 78.952L137.279 79.43L137.284 79.4398L138.157 78.952ZM140.941 86.056L139.971 86.2985L139.971 86.2985L140.941 86.056ZM140.221 104.536L139.273 104.217L139.273 104.217L140.221 104.536ZM134.941 112.984L134.249 112.263L134.244 112.267L134.941 112.984ZM126.493 116.632H125.493V117.662L126.523 117.632L126.493 116.632ZM126.493 115.672L126.458 114.673L125.493 114.706V115.672H126.493ZM130.381 113.8L131.22 114.344L131.222 114.341L130.381 113.8ZM131.917 109.288L130.922 109.19L130.922 109.192L131.917 109.288ZM130.765 75.208L131.632 74.7101L131.63 74.7063L130.765 75.208ZM126.493 72.712H125.493V73.6792L126.46 73.7114L126.493 72.712ZM126.493 71.704L126.506 70.7041L125.493 70.6913V71.704H126.493ZM133.309 73.72L132.764 74.5582L132.77 74.562L133.309 73.72ZM138.157 78.952L137.284 79.4398C138.455 81.5343 139.351 83.8192 139.971 86.2985L140.941 86.056L141.911 85.8135C141.251 83.1728 140.292 80.7217 139.03 78.4642L138.157 78.952ZM140.941 86.056L139.971 86.2985C140.587 88.7638 140.901 91.5762 140.901 94.744H141.901H142.901C142.901 91.4478 142.575 88.4682 141.911 85.8135L140.941 86.056ZM141.901 94.744H140.901C140.901 97.8255 140.362 100.982 139.273 104.217L140.221 104.536L141.169 104.855C142.32 101.434 142.901 98.0625 142.901 94.744H141.901ZM140.221 104.536L139.273 104.217C138.202 107.401 136.526 110.076 134.249 112.263L134.941 112.984L135.634 113.705C138.156 111.284 140 108.327 141.169 104.855L140.221 104.536ZM134.941 112.984L134.244 112.267C132.016 114.436 129.436 115.544 126.463 115.632L126.493 116.632L126.523 117.632C130.015 117.528 133.066 116.204 135.639 113.701L134.941 112.984ZM126.493 116.632H127.493V115.672H126.493H125.493V116.632H126.493ZM126.493 115.672L126.528 116.671C128.572 116.6 130.224 115.88 131.22 114.344L130.381 113.8L129.542 113.256C129.003 114.088 128.062 114.616 126.458 114.673L126.493 115.672ZM130.381 113.8L131.222 114.341C132.176 112.857 132.738 111.199 132.913 109.384L131.917 109.288L130.922 109.192C130.776 110.705 130.314 112.055 129.54 113.259L130.381 113.8ZM131.917 109.288L132.912 109.386C133.141 107.07 133.253 104.17 133.253 100.696H132.253H131.253C131.253 104.134 131.142 106.962 130.922 109.19L131.917 109.288ZM132.253 100.696H133.253V86.92H132.253H131.253V100.696H132.253ZM132.253 86.92H133.253C133.253 83.8579 133.128 81.3158 132.873 79.306C132.622 77.3257 132.231 75.7531 131.632 74.7101L130.765 75.208L129.898 75.7059C130.291 76.3909 130.645 77.6343 130.889 79.558C131.13 81.4522 131.253 83.9021 131.253 86.92H132.253ZM130.765 75.208L131.63 74.7063C130.521 72.7944 128.775 71.7875 126.526 71.7126L126.493 72.712L126.46 73.7114C128.051 73.7645 129.153 74.4216 129.9 75.7097L130.765 75.208ZM126.493 72.712H127.493V71.704H126.493H125.493V72.712H126.493ZM126.493 71.704L126.48 72.7039C128.829 72.7337 130.915 73.3548 132.764 74.5581L133.309 73.72L133.855 72.8819C131.672 71.4612 129.213 70.7383 126.506 70.7041L126.493 71.704ZM133.309 73.72L132.77 74.562C134.673 75.7814 136.174 77.3991 137.279 79.4299L138.157 78.952L139.036 78.4741C137.773 76.1529 136.041 74.2826 133.849 72.878L133.309 73.72Z" fill="#2D2018" mask="url(#path-4-inside-2_192_12)"/>
</svg>
